HIERARCHY
ROOT Hips
{
	OFFSET 0.000000 0.000000 0.000000
	CHANNELS 6 Xposition Yposition Zposition Xrotation Yrotation Zrotation
	JOINT LeftUpLeg_virtual
	{
		OFFSET 0.000000 0.000000 0.000000
		CHANNELS 3 Xrotation Yrotation Zrotation
		JOINT LeftUpLeg
		{
			OFFSET 13.026900 -6.336304 -1.092800
			CHANNELS 3 Xrotation Yrotation Zrotation
			JOINT LeftLeg
			{
				OFFSET 0.524474 -46.096886 9.782700
				CHANNELS 3 Xrotation Yrotation Zrotation
				JOINT LeftFoot
				{
					OFFSET -0.524474 -53.427422 -12.948200
					CHANNELS 3 Xrotation Yrotation Zrotation
					JOINT LeftToeBase
					{
						OFFSET 0.192200 -14.009700 16.364100
						CHANNELS 3 Xrotation Yrotation Zrotation
						JOINT LeftToe_End
						{
							OFFSET -1.784700 -0.561700 9.474800
							CHANNELS 3 Xrotation Yrotation Zrotation
							End Site
							{
								OFFSET 0 0 0
							}
						}
					}
				}
			}
		}
	}
	JOINT RightUpLeg_virtual
	{
		OFFSET 0.000000 0.000000 0.000000
		CHANNELS 3 Xrotation Yrotation Zrotation
		JOINT RightUpLeg
		{
			OFFSET -12.883000 -6.336304 -1.092800
			CHANNELS 3 Xrotation Yrotation Zrotation
			JOINT RightLeg
			{
				OFFSET -0.524587 -46.096825 9.782800
				CHANNELS 3 Xrotation Yrotation Zrotation
				JOINT RightFoot
				{
					OFFSET 0.524587 -53.427383 -12.948300
					CHANNELS 3 Xrotation Yrotation Zrotation
					JOINT RightToeBase
					{
						OFFSET -0.192200 -14.009700 16.364100
						CHANNELS 3 Xrotation Yrotation Zrotation
						JOINT RightToe_End
						{
							OFFSET 1.784700 -0.561700 9.474800
							CHANNELS 3 Xrotation Yrotation Zrotation
							End Site
							{
								OFFSET 0 0 0
							}
						}
					}
				}
			}
		}
	}
	JOINT Spine_virtual
	{
		OFFSET 0.000000 0.000000 0.000000
		CHANNELS 3 Xrotation Yrotation Zrotation
		JOINT Spine
		{
			OFFSET 0.072000 7.257294 -0.789700
			CHANNELS 3 Xrotation Yrotation Zrotation
			JOINT Spine1
			{
				OFFSET 0.000000 12.508769 -0.658067
				CHANNELS 3 Xrotation Yrotation Zrotation
				JOINT Spine1_split
				{
					OFFSET 0.000000 12.508769 -0.658067
					CHANNELS 3 Xrotation Yrotation Zrotation
					JOINT Spine2
					{
						OFFSET 0.000000 12.508769 -0.658067
						CHANNELS 3 Xrotation Yrotation Zrotation
						JOINT Neck_virtual
						{
							OFFSET 0.000000 0.000000 0.000000
							CHANNELS 3 Xrotation Yrotation Zrotation
							JOINT Neck
							{
								OFFSET 0.000000 14.033295 7.520400
								CHANNELS 3 Xrotation Yrotation Zrotation
								JOINT Head
								{
									OFFSET 0.000000 8.198502 5.703100
									CHANNELS 3 Xrotation Yrotation Zrotation
									JOINT HeadTop_End
									{
										OFFSET 0.000000 17.760803 13.332701
										CHANNELS 3 Xrotation Yrotation Zrotation
										End Site
										{
											OFFSET 0 0 0
										}
									}
								}
							}
						}
						JOINT LeftShoulder_virtual
						{
							OFFSET 0.000000 0.000000 0.000000
							CHANNELS 3 Xrotation Yrotation Zrotation
							JOINT LeftShoulder
							{
								OFFSET 6.292450 5.785301 -0.669000
								CHANNELS 3 Xrotation Yrotation Zrotation
								JOINT LeftShoulder_split
								{
									OFFSET 6.292450 5.785301 -0.669000
									CHANNELS 3 Xrotation Yrotation Zrotation
									JOINT LeftArm
									{
										OFFSET 13.907140 -6.093903 1.965100
										CHANNELS 3 Xrotation Yrotation Zrotation
										JOINT LeftForeArm
										{
											OFFSET 34.140198 0.000000 0.000000
											CHANNELS 3 Xrotation Yrotation Zrotation
											JOINT LeftHand
											{
												OFFSET 40.960209 0.000000 0.000000
												CHANNELS 3 Xrotation Yrotation Zrotation
												End Site
												{
													OFFSET 0 0 0
												}
											}
										}
									}
								}
							}
						}
						JOINT RightShoulder_virtual
						{
							OFFSET 0.000000 0.000000 0.000000
							CHANNELS 3 Xrotation Yrotation Zrotation
							JOINT RightShoulder
							{
								OFFSET -6.292450 5.785301 -0.669000
								CHANNELS 3 Xrotation Yrotation Zrotation
								JOINT RightShoulder_split
								{
									OFFSET -6.292450 5.785301 -0.669000
									CHANNELS 3 Xrotation Yrotation Zrotation
									JOINT RightArm
									{
										OFFSET -13.907140 -6.093903 1.965100
										CHANNELS 3 Xrotation Yrotation Zrotation
										JOINT RightForeArm
										{
											OFFSET -34.140198 0.000000 0.000000
											CHANNELS 3 Xrotation Yrotation Zrotation
											JOINT RightHand
											{
												OFFSET -40.960209 0.000000 0.000000
												CHANNELS 3 Xrotation Yrotation Zrotation
												End Site
												{
													OFFSET 0 0 0
												}
											}
										}
									}
								}
							}
						}
					}
				}
			}
		}
	}
}
MOTION
Frames: 4
Frame Time: 0.03333333
2.645676 80.650848 -57.854610 0.000000 0.000000 0.000000 33.600552 -78.780454 30.423193 -49.895433 -8.245127 27.195797 75.722127 11.808072 0.535988 -14.061521 3.841967 -32.668405 -5.244058 -2.749238 3.015670 0.000000 0.000000 0.000000 35.087365 -78.042397 32.574716 -52.214416 0.327709 -10.173837 82.038078 13.485006 -6.753988 -29.205110 -1.889205 1.149045 -2.236364 1.008282 1.257827 0.000000 0.000000 0.000000 50.456445 -83.203097 48.487168 5.011365 10.846198 -4.657860 10.014269 18.870027 -6.234693 0.635322 -5.648420 1.931788 0.000000 0.000000 0.000000 12.430439 18.255392 -7.780865 -1.060558 1.876587 3.213523 4.550752 2.479756 -6.373258 0.000000 0.000000 0.000000 10.177448 18.539585 -7.044188 4.404053 -4.215789 0.110532 2.288968 3.196098 0.296725 -75.598166 -30.488230 -61.536248 55.506929 -75.768135 54.492725 0.000000 0.000000 0.000000 9.270873 18.625692 -6.586666 5.415497 7.998403 -2.377058 -2.140301 6.669856 -3.321079 -48.214360 -4.598061 29.364329 -15.521601 43.868977 1.820000 0.000000 0.000000 0.000000 
3.603852 79.527069 -58.677921 0.000000 0.000000 0.000000 42.951095 -74.890688 39.250239 -55.706265 -9.078896 27.064956 76.969982 11.007162 0.192485 -14.146037 2.281042 -31.701930 -5.428588 -3.021049 3.370129 0.000000 0.000000 0.000000 41.127564 -74.650020 38.778355 -56.364774 0.028884 -10.734710 82.358920 12.265283 -5.179266 -31.961652 -2.213072 0.274636 0.667390 0.732565 0.973117 0.000000 0.000000 0.000000 53.278399 -79.041107 50.866833 5.519320 10.659147 -4.666463 10.724890 18.170161 -6.449778 0.805950 -6.235511 1.935898 0.000000 0.000000 0.000000 12.347738 17.714765 -7.584525 -1.184995 4.173813 3.736045 1.994441 5.103154 -10.132268 0.000000 0.000000 0.000000 10.521012 17.911439 -7.384598 3.611047 -4.557752 -2.345230 0.479766 2.714314 -0.115590 -61.326069 -21.573858 -56.184743 51.504988 -71.714445 49.140653 0.000000 0.000000 0.000000 9.678692 18.274482 -6.521060 4.770975 8.098458 0.574170 -1.604285 6.736858 -4.092295 -42.418972 -10.707639 30.024012 -15.092852 43.027309 5.162514 0.000000 0.000000 0.000000 
4.321614 79.340233 -59.200825 0.000000 0.000000 0.000000 48.322287 -71.302380 44.617552 -60.599214 -9.132355 26.537677 76.852626 9.921737 -0.017175 -13.661948 0.725558 -29.819175 -5.507612 -3.343246 3.455676 0.000000 0.000000 0.000000 43.669859 -71.363251 41.922902 -59.834581 0.234841 -12.273447 81.599765 11.671161 -4.162856 -32.157036 -2.156854 1.814063 1.294486 0.511252 0.444913 0.000000 0.000000 0.000000 53.013814 -75.020885 50.419087 5.862575 10.421078 -4.302660 11.326448 17.455638 -6.455342 1.154478 -6.232910 1.689531 0.000000 0.000000 0.000000 12.107473 17.092584 -7.178861 -1.441888 6.262628 4.067142 0.364293 7.731835 -13.693062 0.000000 0.000000 0.000000 10.752536 17.244851 -7.475552 3.080388 -4.188649 -4.064804 -0.551144 2.169729 -0.493213 -47.524555 -12.057056 -52.963975 40.707480 -67.877307 38.114925 0.000000 0.000000 0.000000 10.010868 17.796143 -6.313106 4.295283 8.251402 3.195661 -0.817115 7.197296 -4.310998 -35.082051 -17.918192 32.416621 -14.645206 43.219788 7.638728 0.000000 0.000000 0.000000 
4.826039 79.540344 -59.899334 0.000000 0.000000 0.000000 49.634114 -68.169407 46.502814 -64.599376 -8.675226 25.556816 76.207296 8.581577 -0.062859 -12.428352 -0.442458 -27.850870 -5.111015 -3.581942 3.271577 0.000000 0.000000 0.000000 44.296195 -68.609605 43.408916 -62.320149 1.232721 -14.159795 80.343208 11.630244 -3.965252 -30.975990 -1.792304 5.186118 0.355216 0.295353 -0.036217 0.000000 0.000000 0.000000 51.343174 -71.653384 48.898858 5.980412 10.120722 -3.679706 11.798448 16.740222 -6.321227 1.391200 -5.694921 1.581482 0.000000 0.000000 0.000000 11.761903 16.386172 -6.683196 -1.835659 8.020730 4.175417 -0.379116 9.930728 -16.731785 0.000000 0.000000 0.000000 10.921193 16.517423 -7.341361 2.746601 -3.547983 -4.972628 -0.524198 1.429135 -0.772678 -34.732670 -3.733472 -53.108491 28.614225 -64.211578 26.437231 0.000000 0.000000 0.000000 10.354401 17.221164 -6.024829 3.910579 8.741852 5.698989 -0.153175 7.460928 -4.150542 -25.848940 -24.771479 37.020998 -14.062162 43.130814 9.081799 0.000000 0.000000 0.000000 
